<svg width="20" height="20" viewBox="0 0 20 20" fill="none" xmlns="http://www.w3.org/2000/svg">
<path d="M12.8001 2.34421L13.6001 3.96953C14.0001 4.76969 15.0251 5.51984 15.8751 5.66987L16.9502 5.8449C20.2252 6.39501 20.9752 8.79548 18.6502 11.1459L17.6502 12.1461C16.9752 12.8213 16.6251 14.1215 16.8251 15.0717L16.9502 15.6718C17.8502 19.6226 15.7501 21.1479 12.3251 19.0725L11.6 18.6224C10.725 18.0973 9.27499 18.0973 8.39997 18.6224L7.67495 19.0725C4.22487 21.1479 2.14983 19.6226 3.04985 15.6718L3.17485 15.0717C3.37486 14.1465 3.02485 12.8213 2.34983 12.1461L1.34981 11.1459C-0.975242 8.77047 -0.225224 6.39501 3.04985 5.8449L4.12487 5.66987C4.99989 5.51984 5.99991 4.76969 6.39992 3.96953L7.19994 2.34421C8.74997 -0.781404 11.25 -0.781404 12.8001 2.34421Z" fill="#707070"/>
</svg>
